<svg width="340" height="53" viewBox="0 0 340 53" fill="none" xmlns="http://www.w3.org/2000/svg">
<g opacity="0.1">
<path d="M5.78559 41.4091C8.9809 41.4091 11.5712 44.0038 11.5712 47.2045C11.5712 50.4053 8.9809 53 5.78559 53C2.59029 53 1.91508e-06 50.4053 1.77503e-06 47.2045C1.63498e-06 44.0038 2.59029 41.4091 5.78559 41.4091Z" fill="white"/>
<path d="M5.78559 21.125C8.9809 21.125 11.5712 23.7197 11.5712 26.9205C11.5712 30.1212 8.9809 32.7159 5.78559 32.7159C2.59029 32.7159 1.02756e-06 30.1212 8.87515e-07 26.9205C7.47469e-07 23.7197 2.59029 21.125 5.78559 21.125Z" fill="white"/>
<path d="M11.5712 6.63638C11.5712 3.43565 8.9809 0.840927 5.78559 0.840927C2.59029 0.840927 -1.40046e-07 3.43565 0 6.63638C1.40046e-07 9.83712 2.59029 12.4318 5.78559 12.4318C8.9809 12.4318 11.5712 9.83712 11.5712 6.63638Z" fill="white"/>
<path d="M25.0709 41.4091C28.2662 41.4091 30.8565 44.0038 30.8565 47.2045C30.8565 50.4053 28.2662 53 25.0709 53C21.8756 53 19.2853 50.4053 19.2853 47.2045C19.2853 44.0038 21.8756 41.4091 25.0709 41.4091Z" fill="white"/>
<path d="M30.8565 26.9205C30.8565 23.7197 28.2662 21.125 25.0709 21.125C21.8756 21.125 19.2853 23.7197 19.2853 26.9205C19.2853 30.1212 21.8756 32.7159 25.0709 32.7159C28.2662 32.7159 30.8565 30.1212 30.8565 26.9205Z" fill="white"/>
<path d="M25.0709 0.840927C28.2662 0.840927 30.8565 3.43565 30.8565 6.63638C30.8565 9.83712 28.2662 12.4318 25.0709 12.4318C21.8756 12.4318 19.2853 9.83712 19.2853 6.63638C19.2853 3.43565 21.8756 0.840927 25.0709 0.840927Z" fill="white"/>
<path d="M50.1418 47.2045C50.1418 44.0038 47.5515 41.4091 44.3562 41.4091C41.1609 41.4091 38.5706 44.0038 38.5706 47.2045C38.5706 50.4053 41.1609 53 44.3562 53C47.5515 53 50.1418 50.4053 50.1418 47.2045Z" fill="white"/>
<path d="M44.3562 21.125C47.5515 21.125 50.1418 23.7197 50.1418 26.9205C50.1418 30.1212 47.5515 32.7159 44.3562 32.7159C41.1609 32.7159 38.5706 30.1212 38.5706 26.9205C38.5706 23.7197 41.1609 21.125 44.3562 21.125Z" fill="white"/>
<path d="M50.1418 6.63637C50.1418 3.43563 47.5515 0.840927 44.3562 0.840927C41.1609 0.840927 38.5706 3.43565 38.5706 6.63638C38.5706 9.83712 41.1609 12.4318 44.3562 12.4318C47.5515 12.4318 50.1418 9.83711 50.1418 6.63637Z" fill="white"/>
<path d="M63.6415 41.4091C66.8368 41.4091 69.4271 44.0038 69.4271 47.2045C69.4271 50.4053 66.8368 53 63.6415 53C60.4462 53 57.8559 50.4053 57.8559 47.2045C57.8559 44.0038 60.4462 41.4091 63.6415 41.4091Z" fill="white"/>
<path d="M69.4271 26.9205C69.4271 23.7197 66.8368 21.125 63.6415 21.125C60.4462 21.125 57.8559 23.7197 57.8559 26.9205C57.8559 30.1212 60.4462 32.7159 63.6415 32.7159C66.8368 32.7159 69.4271 30.1212 69.4271 26.9205Z" fill="white"/>
<path d="M63.6415 0.840927C66.8368 0.840927 69.4271 3.43563 69.4271 6.63637C69.4271 9.83711 66.8368 12.4318 63.6415 12.4318C60.4462 12.4318 57.8559 9.83711 57.8559 6.63637C57.8559 3.43563 60.4462 0.840927 63.6415 0.840927Z" fill="white"/>
<path d="M88.7124 47.2045C88.7124 44.0038 86.1221 41.4091 82.9268 41.4091C79.7315 41.4091 77.1412 44.0038 77.1412 47.2045C77.1412 50.4053 79.7315 53 82.9268 53C86.1221 53 88.7124 50.4053 88.7124 47.2045Z" fill="white"/>
<path d="M82.9268 21.125C86.1221 21.125 88.7124 23.7197 88.7124 26.9205C88.7124 30.1212 86.1221 32.7159 82.9268 32.7159C79.7315 32.7159 77.1412 30.1212 77.1412 26.9205C77.1412 23.7197 79.7315 21.125 82.9268 21.125Z" fill="white"/>
<path d="M88.7124 6.63637C88.7124 3.43563 86.1221 0.840927 82.9268 0.840927C79.7315 0.840927 77.1412 3.43563 77.1412 6.63637C77.1412 9.83711 79.7315 12.4318 82.9268 12.4318C86.1221 12.4318 88.7124 9.83711 88.7124 6.63637Z" fill="white"/>
<path d="M102.212 41.4091C105.407 41.4091 107.998 44.0038 107.998 47.2045C107.998 50.4053 105.407 53 102.212 53C99.0168 53 96.4265 50.4053 96.4265 47.2045C96.4265 44.0038 99.0168 41.4091 102.212 41.4091Z" fill="white"/>
<path d="M107.998 26.9205C107.998 23.7197 105.407 21.125 102.212 21.125C99.0168 21.125 96.4265 23.7197 96.4265 26.9205C96.4265 30.1212 99.0168 32.7159 102.212 32.7159C105.407 32.7159 107.998 30.1212 107.998 26.9205Z" fill="white"/>
<path d="M102.212 0.840927C105.407 0.840927 107.998 3.43563 107.998 6.63637C107.998 9.83711 105.407 12.4318 102.212 12.4318C99.0168 12.4318 96.4265 9.83711 96.4265 6.63637C96.4265 3.43563 99.0168 0.840927 102.212 0.840927Z" fill="white"/>
<path d="M127.283 47.2045C127.283 44.0038 124.693 41.4091 121.497 41.4091C118.302 41.4091 115.712 44.0038 115.712 47.2045C115.712 50.4053 118.302 53 121.497 53C124.693 53 127.283 50.4053 127.283 47.2045Z" fill="white"/>
<path d="M121.497 21.125C124.693 21.125 127.283 23.7197 127.283 26.9205C127.283 30.1212 124.693 32.7159 121.497 32.7159C118.302 32.7159 115.712 30.1212 115.712 26.9205C115.712 23.7197 118.302 21.125 121.497 21.125Z" fill="white"/>
<path d="M127.283 6.63637C127.283 3.43563 124.693 0.840927 121.497 0.840927C118.302 0.840927 115.712 3.43563 115.712 6.63637C115.712 9.83711 118.302 12.4318 121.497 12.4318C124.693 12.4318 127.283 9.83711 127.283 6.63637Z" fill="white"/>
<path d="M140.783 41.4091C143.978 41.4091 146.568 44.0038 146.568 47.2045C146.568 50.4053 143.978 53 140.783 53C137.587 53 134.997 50.4053 134.997 47.2045C134.997 44.0038 137.587 41.4091 140.783 41.4091Z" fill="white"/>
<path d="M146.568 26.9205C146.568 23.7197 143.978 21.125 140.783 21.125C137.587 21.125 134.997 23.7197 134.997 26.9205C134.997 30.1212 137.587 32.7159 140.783 32.7159C143.978 32.7159 146.568 30.1212 146.568 26.9205Z" fill="white"/>
<path d="M140.783 0.840927C143.978 0.840927 146.568 3.43563 146.568 6.63637C146.568 9.83711 143.978 12.4318 140.783 12.4318C137.587 12.4318 134.997 9.83711 134.997 6.63637C134.997 3.43563 137.587 0.840927 140.783 0.840927Z" fill="white"/>
<path d="M165.854 47.2045C165.854 44.0038 163.263 41.4091 160.068 41.4091C156.873 41.4091 154.282 44.0038 154.282 47.2045C154.282 50.4053 156.873 53 160.068 53C163.263 53 165.854 50.4053 165.854 47.2045Z" fill="white"/>
<path d="M160.068 21.125C163.263 21.125 165.854 23.7197 165.854 26.9205C165.854 30.1212 163.263 32.7159 160.068 32.7159C156.873 32.7159 154.282 30.1212 154.282 26.9205C154.282 23.7197 156.873 21.125 160.068 21.125Z" fill="white"/>
<path d="M165.854 6.63637C165.854 3.43563 163.263 0.840927 160.068 0.840927C156.873 0.840927 154.282 3.43563 154.282 6.63637C154.282 9.83711 156.873 12.4318 160.068 12.4318C163.263 12.4318 165.854 9.83711 165.854 6.63637Z" fill="white"/>
<path d="M179.932 41.4091C183.127 41.4091 185.718 44.0038 185.718 47.2045C185.718 50.4053 183.127 53 179.932 53C176.737 53 174.146 50.4053 174.146 47.2045C174.146 44.0038 176.737 41.4091 179.932 41.4091Z" fill="white"/>
<path d="M179.932 21.125C183.127 21.125 185.718 23.7197 185.718 26.9204C185.718 30.1212 183.127 32.7159 179.932 32.7159C176.737 32.7159 174.146 30.1212 174.146 26.9204C174.146 23.7197 176.737 21.125 179.932 21.125Z" fill="white"/>
<path d="M185.718 6.63635C185.718 3.43562 183.127 0.840881 179.932 0.840881C176.737 0.840881 174.146 3.43562 174.146 6.63635C174.146 9.83709 176.737 12.4318 179.932 12.4318C183.127 12.4318 185.718 9.83709 185.718 6.63635Z" fill="white"/>
<path d="M199.217 41.4091C202.413 41.4091 205.003 44.0038 205.003 47.2045C205.003 50.4053 202.413 53 199.217 53C196.022 53 193.432 50.4053 193.432 47.2045C193.432 44.0038 196.022 41.4091 199.217 41.4091Z" fill="white"/>
<path d="M205.003 26.9204C205.003 23.7197 202.413 21.125 199.217 21.125C196.022 21.125 193.432 23.7197 193.432 26.9204C193.432 30.1212 196.022 32.7159 199.217 32.7159C202.413 32.7159 205.003 30.1212 205.003 26.9204Z" fill="white"/>
<path d="M199.217 0.840881C202.413 0.840881 205.003 3.43562 205.003 6.63635C205.003 9.83709 202.413 12.4318 199.217 12.4318C196.022 12.4318 193.432 9.83709 193.432 6.63635C193.432 3.43562 196.022 0.840881 199.217 0.840881Z" fill="white"/>
<path d="M224.288 47.2045C224.288 44.0038 221.698 41.4091 218.503 41.4091C215.307 41.4091 212.717 44.0038 212.717 47.2045C212.717 50.4053 215.307 53 218.503 53C221.698 53 224.288 50.4053 224.288 47.2045Z" fill="white"/>
<path d="M218.503 21.125C221.698 21.125 224.288 23.7197 224.288 26.9204C224.288 30.1212 221.698 32.7159 218.503 32.7159C215.307 32.7159 212.717 30.1212 212.717 26.9204C212.717 23.7197 215.307 21.125 218.503 21.125Z" fill="white"/>
<path d="M224.288 6.63634C224.288 3.4356 221.698 0.840881 218.503 0.840881C215.307 0.840881 212.717 3.43562 212.717 6.63635C212.717 9.83709 215.307 12.4318 218.503 12.4318C221.698 12.4318 224.288 9.83707 224.288 6.63634Z" fill="white"/>
<path d="M237.788 41.4091C240.983 41.4091 243.573 44.0038 243.573 47.2045C243.573 50.4053 240.983 53 237.788 53C234.593 53 232.002 50.4053 232.002 47.2045C232.002 44.0038 234.593 41.4091 237.788 41.4091Z" fill="white"/>
<path d="M243.573 26.9204C243.573 23.7197 240.983 21.125 237.788 21.125C234.593 21.125 232.002 23.7197 232.002 26.9204C232.002 30.1212 234.593 32.7159 237.788 32.7159C240.983 32.7159 243.573 30.1212 243.573 26.9204Z" fill="white"/>
<path d="M237.788 0.840881C240.983 0.840881 243.573 3.4356 243.573 6.63634C243.573 9.83707 240.983 12.4318 237.788 12.4318C234.593 12.4318 232.002 9.83707 232.002 6.63634C232.002 3.4356 234.593 0.840881 237.788 0.840881Z" fill="white"/>
<path d="M262.859 47.2045C262.859 44.0038 260.268 41.4091 257.073 41.4091C253.878 41.4091 251.288 44.0038 251.288 47.2045C251.288 50.4053 253.878 53 257.073 53C260.268 53 262.859 50.4053 262.859 47.2045Z" fill="white"/>
<path d="M257.073 21.125C260.268 21.125 262.859 23.7197 262.859 26.9204C262.859 30.1212 260.268 32.7159 257.073 32.7159C253.878 32.7159 251.288 30.1212 251.288 26.9204C251.288 23.7197 253.878 21.125 257.073 21.125Z" fill="white"/>
<path d="M262.859 6.63634C262.859 3.4356 260.268 0.840881 257.073 0.840881C253.878 0.840881 251.288 3.4356 251.288 6.63634C251.288 9.83707 253.878 12.4318 257.073 12.4318C260.268 12.4318 262.859 9.83707 262.859 6.63634Z" fill="white"/>
<path d="M276.358 41.4091C279.554 41.4091 282.144 44.0038 282.144 47.2045C282.144 50.4053 279.554 53 276.358 53C273.163 53 270.573 50.4053 270.573 47.2045C270.573 44.0038 273.163 41.4091 276.358 41.4091Z" fill="white"/>
<path d="M282.144 26.9204C282.144 23.7197 279.554 21.125 276.358 21.125C273.163 21.125 270.573 23.7197 270.573 26.9204C270.573 30.1212 273.163 32.7159 276.358 32.7159C279.554 32.7159 282.144 30.1212 282.144 26.9204Z" fill="white"/>
<path d="M276.358 0.840881C279.554 0.840881 282.144 3.4356 282.144 6.63634C282.144 9.83707 279.554 12.4318 276.358 12.4318C273.163 12.4318 270.573 9.83707 270.573 6.63634C270.573 3.4356 273.163 0.840881 276.358 0.840881Z" fill="white"/>
<path d="M301.429 47.2045C301.429 44.0038 298.839 41.4091 295.644 41.4091C292.448 41.4091 289.858 44.0038 289.858 47.2045C289.858 50.4053 292.448 53 295.644 53C298.839 53 301.429 50.4053 301.429 47.2045Z" fill="white"/>
<path d="M295.644 21.125C298.839 21.125 301.429 23.7197 301.429 26.9204C301.429 30.1212 298.839 32.7159 295.644 32.7159C292.448 32.7159 289.858 30.1212 289.858 26.9204C289.858 23.7197 292.448 21.125 295.644 21.125Z" fill="white"/>
<path d="M301.429 6.63634C301.429 3.4356 298.839 0.840881 295.644 0.840881C292.448 0.840881 289.858 3.4356 289.858 6.63634C289.858 9.83707 292.448 12.4318 295.644 12.4318C298.839 12.4318 301.429 9.83707 301.429 6.63634Z" fill="white"/>
<path d="M314.929 41.4091C318.124 41.4091 320.715 44.0038 320.715 47.2045C320.715 50.4053 318.124 53 314.929 53C311.734 53 309.144 50.4053 309.144 47.2045C309.144 44.0038 311.734 41.4091 314.929 41.4091Z" fill="white"/>
<path d="M320.715 26.9204C320.715 23.7197 318.124 21.125 314.929 21.125C311.734 21.125 309.144 23.7197 309.144 26.9204C309.144 30.1212 311.734 32.7159 314.929 32.7159C318.124 32.7159 320.715 30.1212 320.715 26.9204Z" fill="white"/>
<path d="M314.929 0.840881C318.124 0.840881 320.715 3.4356 320.715 6.63634C320.715 9.83707 318.124 12.4318 314.929 12.4318C311.734 12.4318 309.144 9.83707 309.144 6.63634C309.144 3.4356 311.734 0.840881 314.929 0.840881Z" fill="white"/>
<path d="M340 47.2045C340 44.0038 337.41 41.4091 334.214 41.4091C331.019 41.4091 328.429 44.0038 328.429 47.2045C328.429 50.4053 331.019 53 334.214 53C337.41 53 340 50.4053 340 47.2045Z" fill="white"/>
<path d="M334.214 21.125C337.41 21.125 340 23.7197 340 26.9204C340 30.1212 337.41 32.7159 334.214 32.7159C331.019 32.7159 328.429 30.1212 328.429 26.9204C328.429 23.7197 331.019 21.125 334.214 21.125Z" fill="white"/>
<path d="M340 6.63634C340 3.4356 337.41 0.840881 334.214 0.840881C331.019 0.840881 328.429 3.4356 328.429 6.63634C328.429 9.83707 331.019 12.4318 334.214 12.4318C337.41 12.4318 340 9.83707 340 6.63634Z" fill="white"/>
</g>
</svg>
