<svg width="138" height="68" viewBox="0 0 138 68" fill="none" xmlns="http://www.w3.org/2000/svg">
<path fill-rule="evenodd" clip-rule="evenodd" d="M35 34C35 15.2223 50.2223 0 69 0C87.7776 0 103 15.2223 103 34V42.1788L137.356 68H0.644165L35 42.1788V34Z" fill="#4B92E3"/>
<path d="M79.3999 34L68.9999 23.6M68.9999 23.6L58.5999 34M68.9999 23.6L68.9999 44.4M68.9999 8C83.3593 8 94.9999 19.6406 94.9999 34C94.9999 48.3594 83.3593 60 68.9999 60C54.6405 60 42.9999 48.3594 42.9999 34C42.9999 19.6406 54.6405 8 68.9999 8Z" stroke="#101117" stroke-width="2.5" stroke-linecap="round" stroke-linejoin="round"/>
</svg>
