<svg width="29" height="29" viewBox="0 0 29 29" fill="none" xmlns="http://www.w3.org/2000/svg">
<path d="M27.9992 21.2147V25.2793C28.0007 25.6566 27.9233 26.0301 27.7718 26.3758C27.6203 26.7216 27.3982 27.0319 27.1196 27.287C26.841 27.5421 26.5121 27.7363 26.1539 27.8572C25.7958 27.9781 25.4162 28.023 25.0397 27.989C20.8623 27.536 16.8496 26.1114 13.324 23.8296C10.0439 21.7494 7.263 18.974 5.17871 15.7004C2.88441 12.1658 1.45663 8.14161 1.01102 3.95373C0.977094 3.57907 1.02171 3.20146 1.14202 2.84495C1.26234 2.48843 1.45571 2.16083 1.70984 1.88299C1.96397 1.60515 2.27328 1.38316 2.61808 1.23117C2.96288 1.07917 3.33561 1.00049 3.71255 1.00013H7.78521C8.44404 0.99366 9.08274 1.2265 9.58228 1.65525C10.0818 2.084 10.4081 2.67941 10.5003 3.3305C10.6722 4.63125 10.991 5.90843 11.4506 7.13766C11.6332 7.6226 11.6728 8.14963 11.5645 8.6563C11.4562 9.16297 11.2047 9.62805 10.8397 9.99642L9.11561 11.7171C11.0482 15.1091 13.8622 17.9176 17.2609 19.8463L18.985 18.1256C19.3541 17.7613 19.8201 17.5103 20.3278 17.4022C20.8355 17.2942 21.3635 17.3336 21.8494 17.5159C23.0811 17.9746 24.3608 18.2928 25.6642 18.4643C26.3236 18.5572 26.9259 18.8887 27.3564 19.3958C27.7869 19.9029 28.0157 20.5502 27.9992 21.2147Z" stroke="#C76028" stroke-width="2" stroke-linecap="round" stroke-linejoin="round"/>
</svg>
