<svg width="27" height="27" viewBox="0 0 27 27" fill="none" xmlns="http://www.w3.org/2000/svg">
<path d="M23.5338 13.3293V25.6588H3.80664V13.3293" stroke="#D0D3D4" stroke-width="2" stroke-linecap="round" stroke-linejoin="round"/>
<path d="M25.9998 7.16479H1.34082V13.3295H25.9998V7.16479Z" stroke="#D0D3D4" stroke-width="2" stroke-linecap="round" stroke-linejoin="round"/>
<path d="M13.6704 25.659V7.16479" stroke="#D0D3D4" stroke-width="2" stroke-linecap="round" stroke-linejoin="round"/>
<path d="M13.6704 7.16474H8.12216C7.30467 7.16474 6.52066 6.83999 5.9426 6.26193C5.36454 5.68388 5.03979 4.89986 5.03979 4.08237C5.03979 3.26487 5.36454 2.48086 5.9426 1.90281C6.52066 1.32475 7.30467 1 8.12216 1C12.4375 1 13.6704 7.16474 13.6704 7.16474Z" stroke="#D0D3D4" stroke-width="2" stroke-linecap="round" stroke-linejoin="round"/>
<path d="M13.6704 7.16474H19.2187C20.0362 7.16474 20.8202 6.83999 21.3982 6.26193C21.9763 5.68388 22.301 4.89986 22.301 4.08237C22.301 3.26487 21.9763 2.48086 21.3982 1.90281C20.8202 1.32475 20.0362 1 19.2187 1C14.9034 1 13.6704 7.16474 13.6704 7.16474Z" stroke="#D0D3D4" stroke-width="2" stroke-linecap="round" stroke-linejoin="round"/>
</svg>
