<svg width="28" height="34" viewBox="0 0 28 34" fill="none" xmlns="http://www.w3.org/2000/svg">
<path d="M27 14.0909C27 24.2727 14 33 14 33C14 33 1 24.2727 1 14.0909C1 10.619 2.36964 7.28926 4.80761 4.83424C7.24558 2.37922 10.5522 1 14 1C17.4478 1 20.7544 2.37922 23.1924 4.83424C25.6304 7.28926 27 10.619 27 14.0909Z" stroke="#C76028" stroke-width="2" stroke-linecap="round" stroke-linejoin="round"/>
<path d="M14 18.4545C16.3932 18.4545 18.3333 16.5009 18.3333 14.0909C18.3333 11.6809 16.3932 9.72727 14 9.72727C11.6068 9.72727 9.66667 11.6809 9.66667 14.0909C9.66667 16.5009 11.6068 18.4545 14 18.4545Z" stroke="#C76028" stroke-width="2" stroke-linecap="round" stroke-linejoin="round"/>
</svg>
