<svg width="48" height="56" viewBox="0 0 48 56" fill="none" xmlns="http://www.w3.org/2000/svg">
<circle cx="41.7845" cy="50.4" r="5.6" fill="#4B92E3"/>
<path d="M11.5094 51.9243C14.4804 46.8442 21.6596 42.7259 27.5447 42.7259L25.1612 46.8015C22.1902 51.8817 15.011 56 9.12584 56L11.5094 51.9243Z" fill="#F7F9F9"/>
<path d="M27.0418 25.3721C30.0114 20.2942 37.1876 16.1777 43.0701 16.1777L40.6842 20.2574C37.7145 25.3353 30.5384 29.4518 24.6559 29.4518L27.0418 25.3721Z" fill="#F7F9F9"/>
<path d="M19.2758 38.6554C22.2484 33.5724 29.4317 29.4518 35.3201 29.4518L32.9396 33.5223C29.967 38.6053 22.7837 42.7259 16.8953 42.7259L19.2758 38.6554Z" fill="#F7F9F9"/>
<path d="M-6.09159e-05 9.12592H9.12586L9.12586 56C4.08575 56 -6.09159e-05 51.9142 -6.09159e-05 46.8741L-6.09159e-05 9.12592Z" fill="#F7F9F9"/>
<path d="M-6.10352e-05 9.12592C-6.10352e-05 4.08581 4.08576 0 9.12586 0H38.1629C43.203 0 47.2888 4.08581 47.2888 9.12592H-6.10352e-05Z" fill="#F7F9F9"/>
</svg>
