<svg width="48" height="48" viewBox="0 0 48 48" fill="none" xmlns="http://www.w3.org/2000/svg">
<rect width="48" height="48" rx="12" fill="#101117"/>
<circle cx="32.5365" cy="34.7519" r="2.688" fill="#4B92E3"/>
<path d="M18.0044 35.4837C19.4305 33.0452 22.8765 31.0684 25.7014 31.0684V31.0684L24.5573 33.0247C23.1312 35.4632 19.6852 37.44 16.8603 37.44V37.44L18.0044 35.4837Z" fill="#F7F9F9"/>
<path d="M25.4599 22.7386C26.8853 20.3012 30.3299 18.3253 33.1535 18.3253V18.3253L32.0083 20.2835C30.5828 22.7209 27.1383 24.6968 24.3147 24.6968V24.6968L25.4599 22.7386Z" fill="#F7F9F9"/>
<path d="M21.7322 29.1145C23.1591 26.6747 26.6071 24.6968 29.4335 24.6968V24.6968L28.2909 26.6507C26.864 29.0905 23.416 31.0684 20.5896 31.0684V31.0684L21.7322 29.1145Z" fill="#F7F9F9"/>
<path d="M12.4799 14.9405H16.8603V37.44V37.44C14.441 37.44 12.4799 35.4788 12.4799 33.0596L12.4799 14.9405Z" fill="#F7F9F9"/>
<path d="M12.4799 14.9404C12.4799 12.5212 14.4411 10.56 16.8603 10.56H30.7981C33.2173 10.56 35.1785 12.5212 35.1785 14.9404V14.9404H12.4799V14.9404Z" fill="#F7F9F9"/>
</svg>
