<svg width="255" height="255" viewBox="0 0 255 255" fill="none" xmlns="http://www.w3.org/2000/svg">
<path d="M131.938 253.839C131.938 254.405 132.412 254.859 132.978 254.835C199.156 252.006 252.268 198.732 254.841 132.488C254.863 131.924 254.41 131.453 253.845 131.453V131.453C253.305 131.453 252.863 131.886 252.842 132.426C250.301 197.617 198.034 250.043 132.908 252.836C132.369 252.859 131.938 253.301 131.938 253.839V253.839Z" fill="#4B92E3"/>
<path d="M131.938 1.06641C131.938 1.60514 132.369 2.04684 132.908 2.06992C198.034 4.86244 250.301 57.2883 252.842 122.48C252.863 123.019 253.305 123.453 253.845 123.453V123.453C254.41 123.453 254.863 122.981 254.841 122.417C252.268 56.1736 199.155 2.89992 132.978 0.0710544C132.412 0.0468802 131.938 0.500367 131.938 1.06641V1.06641Z" fill="#4B92E3"/>
<path d="M122.907 0.0319185C123.469 0.0122648 123.938 0.464581 123.938 1.02754V1.02754C123.938 1.56929 123.503 2.01227 122.961 2.03126C57.3747 4.3309 4.5886 56.9576 2.03519 122.48C2.01416 123.019 1.57181 123.453 1.03157 123.453V123.453C0.467073 123.453 0.0141697 122.981 0.0360779 122.417C2.62197 55.8377 56.2615 2.36 122.907 0.0319185Z" fill="#4B92E3"/>
<path d="M122.961 252.875C123.503 252.894 123.938 253.336 123.938 253.878V253.878C123.938 254.441 123.469 254.894 122.907 254.874C56.2613 252.546 2.62171 199.068 0.0360589 132.488C0.0141529 131.924 0.467056 131.453 1.03155 131.453V131.453C1.57179 131.453 2.01414 131.886 2.03518 132.426C4.58834 197.948 57.3745 250.575 122.961 252.875Z" fill="#4B92E3"/>
</svg>
