<svg width="22" height="34" viewBox="0 0 22 34" fill="none" xmlns="http://www.w3.org/2000/svg">
<path d="M22 10.0857C22 9.53344 21.5523 9.08572 21 9.08572C20.4477 9.08572 20 9.53344 20 10.0857H22ZM21 11.0057L22 11.0063V11.0057H21ZM14.663 2.77915C15.1675 3.00393 15.7587 2.7772 15.9834 2.27272C16.2082 1.76825 15.9815 1.17708 15.477 0.952296L14.663 2.77915ZM21.7075 3.71248C22.0978 3.32176 22.0975 2.68859 21.7068 2.29826C21.316 1.90794 20.6829 1.90825 20.2925 2.29897L21.7075 3.71248ZM11 13.0157L10.2929 13.7228L11.0004 14.4303L11.7075 13.7225L11 13.0157ZM8.70711 9.30862C8.31659 8.91809 7.68342 8.91809 7.2929 9.30862C6.90237 9.69914 6.90237 10.3323 7.2929 10.7228L8.70711 9.30862ZM12 22C12 21.4477 11.5523 21 11 21C10.4477 21 10 21.4477 10 22L12 22ZM10 33C10 33.5523 10.4477 34 11 34C11.5523 34 12 33.5523 12 33L10 33ZM20 10.0857V11.0057H22V10.0857H20ZM20 11.0052C19.9989 12.9459 19.3705 14.8344 18.2084 16.3888L19.8103 17.5863C21.2306 15.6864 21.9986 13.3784 22 11.0063L20 11.0052ZM18.2084 16.3888C17.0464 17.9432 15.413 19.0804 13.5518 19.6307L14.1189 21.5486C16.3936 20.876 18.39 19.4862 19.8103 17.5863L18.2084 16.3888ZM13.5518 19.6307C11.6907 20.1809 9.70153 20.1149 7.88102 19.4423L7.18792 21.3183C9.41299 22.1404 11.8442 22.2211 14.1189 21.5486L13.5518 19.6307ZM7.88102 19.4423C6.06051 18.7697 4.50619 17.5266 3.44987 15.8985L1.77206 16.9871C3.06312 18.977 4.96285 20.4963 7.18792 21.3183L7.88102 19.4423ZM3.44987 15.8985C2.39354 14.2704 1.89181 12.3444 2.01951 10.4078L0.0238437 10.2762C-0.13223 12.6432 0.480992 14.9971 1.77206 16.9871L3.44987 15.8985ZM2.01951 10.4078C2.14721 8.47126 2.89749 6.62785 4.15845 5.15252L2.63811 3.85308C1.09693 5.65625 0.179918 7.90932 0.0238437 10.2762L2.01951 10.4078ZM4.15845 5.15252C5.41942 3.67719 7.12351 2.649 9.01657 2.22128L8.57581 0.270456C6.26206 0.793216 4.17929 2.0499 2.63811 3.85308L4.15845 5.15252ZM9.01657 2.22128C10.9096 1.79357 12.8902 1.98926 14.663 2.77915L15.477 0.952296C13.3103 -0.0131339 10.8896 -0.252304 8.57581 0.270456L9.01657 2.22128ZM20.2925 2.29897L10.2925 12.309L11.7075 13.7225L21.7075 3.71248L20.2925 2.29897ZM11.7071 12.3086L8.70711 9.30862L7.2929 10.7228L10.2929 13.7228L11.7071 12.3086ZM10 22L10 33L12 33L12 22L10 22Z" fill="#4B92E3"/>
</svg>
