<svg width="28" height="28" viewBox="0 0 28 28" fill="none" xmlns="http://www.w3.org/2000/svg">
<path d="M20.8096 10.1H22.0477C23.3611 10.1 24.6208 10.6479 25.5495 11.623C26.4783 12.5982 27 13.9209 27 15.3C27 16.6791 26.4783 18.0018 25.5495 18.977C24.6208 19.9521 23.3611 20.5 22.0477 20.5H20.8096M20.8096 10.1H1.00003V21.8C1.00003 23.1791 1.5218 24.5018 2.45055 25.477C3.3793 26.4521 4.63896 27 5.95241 27H15.8572C17.1706 27 18.4303 26.4521 19.359 25.477C20.2878 24.5018 20.8096 23.1791 20.8096 21.8V10.1ZM5.95241 1V4.9M10.9048 1V4.9M15.8572 1V4.9" stroke="#D0D3D4" stroke-width="2" stroke-linecap="round" stroke-linejoin="round"/>
</svg>
