<svg width="28" height="26" viewBox="0 0 28 26" fill="none" xmlns="http://www.w3.org/2000/svg">
<path d="M19.2 25V3.66667C19.2 2.95942 18.9261 2.28115 18.4385 1.78105C17.9509 1.28095 17.2896 1 16.6 1H11.4C10.7105 1 10.0491 1.28095 9.56155 1.78105C9.07396 2.28115 8.80003 2.95942 8.80003 3.66667V25M3.60003 6.33333H24.4C25.836 6.33333 27 7.52724 27 9V22.3333C27 23.8061 25.836 25 24.4 25H3.60003C2.16409 25 1.00003 23.8061 1.00003 22.3333V9C1.00003 7.52724 2.16409 6.33333 3.60003 6.33333Z" stroke="#D0D3D4" stroke-width="2" stroke-linecap="round" stroke-linejoin="round"/>
</svg>
