<svg width="38" height="46" viewBox="0 0 38 46" fill="none" xmlns="http://www.w3.org/2000/svg">
<path d="M34.7436 34.1995H26.8245C26.3477 34.1995 26.1009 33.885 26.0174 33.7495C25.9338 33.6141 25.7613 33.2523 25.9747 32.8246L37.59 9.59531C37.8571 9.05907 38 8.45791 38 7.68512C38 5.54301 36.2577 3.7998 34.1147 3.7998C32.634 3.7998 31.3018 4.62273 30.6394 5.94753L24.6983 17.8299C23.6907 15.98 21.6071 14.94 19.4956 15.2582L9.39821 16.8122C7.87677 17.0459 6.5575 18.0071 5.87101 19.3829L0.805631 29.5154C0.278653 30.5683 0.000335693 31.7475 0.000335693 32.9247C0.000335693 35.8313 1.61458 38.4438 4.21411 39.7436L13.1444 44.2087C14.9646 45.1188 17.0018 45.5994 19.0354 45.5994C20.3694 45.5994 21.6906 45.3971 22.9634 44.9991L36.3839 40.8058C36.6288 40.7288 36.8348 40.5553 36.9498 40.3243L37.6568 38.9105C37.8813 38.4605 38 37.9568 38 37.4549C38 35.6597 36.5397 34.1995 34.7436 34.1995ZM35.9571 38.0616L35.432 39.1127L22.3956 43.1864C19.6439 44.0445 16.5713 43.7968 13.9941 42.5092L5.06385 38.044C3.11188 37.0681 1.90029 35.1068 1.90029 32.9248C1.90029 32.0407 2.10994 31.1556 2.50519 30.3652L7.57057 20.2326C7.98248 19.4069 8.77478 18.8298 9.68766 18.6898L19.785 17.1358C21.1339 16.9327 22.4773 17.6256 23.084 18.8428L23.8503 20.3745C24.1732 21.0184 25.227 21.0184 25.5499 20.3745L32.339 6.79726C32.6767 6.12004 33.3577 5.69976 34.1147 5.69976C35.2094 5.69976 36.1 6.59037 36.1 7.85674C36.1 8.16382 36.0276 8.47091 35.8904 8.7446L24.2752 31.9757C23.8299 32.8654 23.8782 33.9025 24.4014 34.7486C24.9247 35.5947 25.8302 36.0994 26.8246 36.0994H34.7437C35.4915 36.0994 36.1 36.7071 36.1 37.4549C36.1 37.6645 36.0499 37.8742 35.9571 38.0616Z" fill="#F7F9F9"/>
<path d="M0.950372 11.4417C1.0283 11.4417 1.1081 11.4324 1.18603 11.412L8.78593 9.47028C9.09577 9.39048 9.3463 9.15945 9.45015 8.85522C9.55221 8.5509 9.49468 8.21504 9.29616 7.96273L7.33306 5.46438C10.7359 3.17193 14.7827 1.90004 19.0001 1.90004C22.3585 1.90004 25.5647 2.67194 28.5297 4.19427C28.9936 4.4318 29.5707 4.2518 29.8081 3.78325C30.0493 3.31657 29.8638 2.74328 29.3981 2.50388C26.2067 0.86559 22.6109 0 19.0001 0C14.0517 0 9.31468 1.60587 5.4405 4.47535C5.42011 4.48924 5.39971 4.50322 5.37923 4.51899C5.37362 4.52362 5.3681 4.52825 5.36249 4.53288C3.3716 6.02092 1.60889 7.84392 0.165383 9.9554C-0.0572711 10.282 -0.0554008 10.7124 0.172775 11.0362C0.352858 11.2942 0.646049 11.4417 0.950372 11.4417ZM5.8061 6.59706L6.90272 7.99052L3.41444 8.88114C4.15472 8.05358 4.95441 7.29005 5.8061 6.59706Z" fill="#C7AF28"/>
</svg>
